<svg xmlns="http://www.w3.org/2000/svg" viewBox="0 0 24 26.4"><defs><style>.cls-1{fill:#1f1f1f;fill-rule:evenodd;}</style></defs><g id="Слой_2" data-name="Слой 2"><g id="Слой_1-2" data-name="Слой 1"><path class="cls-1" d="M3.84.48A1.21,1.21,0,0,1,4.8,0H19.2a1.21,1.21,0,0,1,1,.48l3.6,4.8A1.18,1.18,0,0,1,24,6V22.8a3.59,3.59,0,0,1-3.6,3.6H3.6A3.59,3.59,0,0,1,0,22.8V6a1.18,1.18,0,0,1,.24-.72ZM5.4,2.4l-3,4V22.8A1.2,1.2,0,0,0,3.6,24H20.4a1.2,1.2,0,0,0,1.2-1.2V6.4l-3-4Z"/><path class="cls-1" d="M0,6A1.2,1.2,0,0,1,1.2,4.8H22.8a1.2,1.2,0,0,1,0,2.4H1.2A1.2,1.2,0,0,1,0,6Z"/><path class="cls-1" d="M7.2,9.6a1.2,1.2,0,0,1,1.2,1.2,3.6,3.6,0,1,0,7.2,0,1.2,1.2,0,1,1,2.4,0,6,6,0,0,1-12,0A1.2,1.2,0,0,1,7.2,9.6Z"/></g></g></svg>