<svg xmlns="http://www.w3.org/2000/svg" viewBox="0 0 13.75 13.14"><defs><style>.cls-1{fill:#f2c94c;fill-rule:evenodd;}</style></defs><g id="Слой_2" data-name="Слой 2"><g id="Слой_1-2" data-name="Слой 1"><path class="cls-1" d="M6.88,0a.65.65,0,0,1,.56.35L9.22,4l4,.58a.61.61,0,0,1,.5.43.64.64,0,0,1-.16.64L10.67,8.43l.68,4a.62.62,0,0,1-.9.66L6.88,11.19,3.3,13.07a.62.62,0,0,1-.9-.66l.68-4L.19,5.62A.64.64,0,0,1,0,5a.61.61,0,0,1,.5-.43l4-.58L6.31.35A.65.65,0,0,1,6.88,0Zm0,2L5.5,4.81A.61.61,0,0,1,5,5.16L2,5.6,4.19,7.76a.68.68,0,0,1,.18.56l-.53,3L6.58,9.93a.62.62,0,0,1,.59,0l2.74,1.44-.53-3a.68.68,0,0,1,.18-.56L11.78,5.6,8.72,5.16a.61.61,0,0,1-.47-.35Z"/></g></g></svg>