<svg xmlns="http://www.w3.org/2000/svg" viewBox="0 0 20 22"><defs><style>.cls-1{fill:#959dad;fill-rule:evenodd;}</style></defs><g id="Слой_2" data-name="Слой 2"><g id="Слой_1-2" data-name="Слой 1"><path class="cls-1" d="M0,5A1,1,0,0,1,1,4H19a1,1,0,0,1,0,2H1A1,1,0,0,1,0,5Z"/><path class="cls-1" d="M8,2A1,1,0,0,0,7,3V4h6V3a1,1,0,0,0-1-1Zm7,2V3a3,3,0,0,0-3-3H8A3,3,0,0,0,5,3V4H3A1,1,0,0,0,2,5V19a3,3,0,0,0,3,3H15a3,3,0,0,0,3-3V5a1,1,0,0,0-1-1ZM4,6V19a1,1,0,0,0,1,1H15a1,1,0,0,0,1-1V6Z"/><path class="cls-1" d="M8,9a1,1,0,0,1,1,1v6a1,1,0,0,1-2,0V10A1,1,0,0,1,8,9Z"/><path class="cls-1" d="M12,9a1,1,0,0,1,1,1v6a1,1,0,0,1-2,0V10A1,1,0,0,1,12,9Z"/></g></g></svg>